<?xml version="1.0" encoding="utf-8"?>
<!-- Generator: Adobe Illustrator 18.1.1, SVG Export Plug-In . SVG Version: 6.00 Build 0)  -->
<svg version="1.2" xmlns="http://www.w3.org/2000/svg" xmlns:xlink="http://www.w3.org/1999/xlink"
	 x="0px" y="0px" viewBox="0 0 50 45.1">
	<path fill="#0bb3d6" d="M38,10l5-2.6l-5-2H24.3l-1.1-1.1l-0.6-0.6l-0.9-0.8l-1.8-1.1l-2.3-1l-2.3-0.6L12.3,0L9.2,0.4L6.4,1.3
		c-0.9,0.4-1.5,0.8-2,1.3L2.8,4.5C2.2,5.3,1.7,6.2,1.2,7.2s-0.8,2.2-1,3.3s-0.3,2.4-0.1,3.6l0.7,3.5c0.2,1.2,0.4,2.4,0.7,3.5l0.7,3.3
		l0.3,2L1.8,29L1.2,33C1,33.9,1,34.4,1.1,34.7h0.2l1.5,1.7l3.7,3.4l5,3.5c1.8,1.1,3.6,1.7,5.4,1.8l0.8-0.1l1.6-0.5l2.2-1.1l2.3-1.9
		v-0.5l-0.5-1.6l-0.2-1.8v-0.5h0.2l1.3-1l0.7-0.8l0.5-1l0.5-1.6l0.5-1.9l0.3-1.6l0.7-1.8l0.5-1.1l0.2-0.7l0.3-1l0.2-1.1l0.1-1v-0.3
		l-0.4-0.9L28.2,20v-0.2c-0.3-0.4-0.3-1.1,0-2l0.7-1.9h0.2v-0.2c0.2-1.4-0.2-3.3-1.3-5.7H38 M27.4,16.1l1.1-0.2l-0.3,0.8l-0.4,1
		l-0.9-0.5l-0.7-0.4V17l0.1,0.1l0.3,0.1c-0.5,0-0.7,0.2-0.7,0.7v0.1v-0.1v-0.3l0.1-0.4l0.2-0.4C26.6,16.5,26.9,16.2,27.4,16.1
		 M27.3,17.6L27.3,17.6l0.4,0.2l0.2,0.3v0.2l-0.2,0.1h-0.1v0.1h-0.7l0,0l0,0c0.4,0,0.5-0.2,0.5-0.5l-0.1-0.2L27.3,17.6 M26,18.8v-0.2
		l0.8,0.2l0.8-0.2v1.1C26.8,19.6,26.3,19.3,26,18.8 M26.6,18.5H26V18C26,18.3,26.2,18.5,26.6,18.5L26.6,18.5L26.6,18.5 M26.3,27.9
		l0.2,0.9l-0.2,0.8L26,30.3l-1,0.8l-1.1,0.1l-2-0.4l-0.7-0.2L20.3,30l-0.8-0.7L19,28.9c0.1-0.2,0.5-0.5,1.2-1
		c0.6-0.4,1.1-0.6,1.4-0.7h1.7l0.8,0.1l0.7-0.1h0.6l0.7,0.1L26.3,27.9 M14.2,5.5L14.4,6l1.1,0.7l1.4,0.7l0.5,0.6h-0.2
		C17,8,16.8,8.2,16.5,8.4l-0.8,0.8c-0.1,0-0.2,0.1-0.2,0.2l-0.3,0.2h0.3l0.2,0.1l0.4,0.2l1.1,1.1L15.8,11c-0.5,0-0.8,0.1-0.9,0.3
		c-0.3,0.2-0.3,0.5,0,0.9c0.2,0.4,0.2,0.8,0,1.1l-1-0.2l-0.6-0.2c-0.3,0-0.6,0.1-0.7,0.4c-0.3,0.2-0.5,0.4-0.7,0.8L11.5,15l-0.2-0.2
		l-0.8-0.9l-0.8-0.6c-0.2-0.2-0.5-0.1-0.9,0.2l-0.5,0.4L8,14.5V14l-0.4-1.4l-0.4-1.1l-0.2-0.2H6.8c-0.2,0-0.4,0.2-0.4,0.7l-0.2-1.1
		L6.3,10V9.6L5.9,9.8h-1L3.7,9.6L3.3,9.2L4,8.9l1.2-0.3l1.7-0.5L6.7,7.9L6.1,7.1l-1-1C5,6.1,4.8,6,4.7,5.9L4.6,5.5l1.1,0.6
		c0.5,0.2,0.9,0.2,1.3,0h0.2l0.3-0.2l0.1-0.4V4.7l0.2-0.8c0-0.2,0.1-0.4,0.2-0.7l0.1,0.3l0.4,0.3c0.3,0,0.4,0.1,0.4,0.4l0.2,0.1
		l0.3,0.1l0.3-0.1l0.5-0.8l0.7-1.3l-0.1,0.7v0.8l-0.1,0.8l0.2-0.1L12,4.1l1.7-0.5h0.2v0.4L14,4.5l0.1,0.6L14.2,5.5 M18.6,14.8
		c0.9,0,1.7,0.2,2.3,0.7c0.6,0.5,1,1,1,1.6c0,0.6-0.3,1.1-1,1.6c-0.7,0.5-1.5,0.7-2.3,0.7c-1,0-1.8-0.2-2.5-0.7c-0.7-0.4-1-1-1-1.6
		c0-0.6,0.3-1.1,1-1.6C16.7,15,17.6,14.8,18.6,14.8 M18.2,17.8l1.4-0.2h0.2v-0.2l-1-0.8l-1.1-0.2l-1.3,0.2h-0.2v0.3
		C16.9,17.6,17.6,17.9,18.2,17.8 M17.6,17.6l-0.5-0.4l-0.4-0.4l0.4-0.2l0.5-0.2l-0.1,0.2L17.4,17C17.4,17.3,17.5,17.5,17.6,17.6
		 M19.5,17.4l-1.1,0.2c0.3,0,0.4-0.2,0.4-0.6v-0.4l0.4,0.4L19.5,17.4 M25.8,28.9l0.2-0.1c-0.3-0.5-0.8-0.8-1.3-0.8L23,28
		c-0.6,0.2-1.1,0.4-1.5,0.5l-0.7,0.3L21,29l0.2-0.2l4.7-0.1V28.9 M44,8.8l-1.1,1.5l3.5,3.1l1.3-1.4L44,8.8 M40.7,11.2l1.6,2.6l1.5-1
		l-1.3-2.5C41.9,10.7,41.3,11,40.7,11.2 M40.6,4l1.7,1l1.3-2.7l-1.5-0.8L40.6,4 M46.2,1.8L42.6,5l1.1,1.4l3.7-3.2L46.2,1.8 M50,8.5
		V6.6h-5.9v1.9H50z"/>
</svg>
