<?xml version="1.0" encoding="utf-8"?>
<!-- Generator: Adobe Illustrator 18.1.1, SVG Export Plug-In . SVG Version: 6.00 Build 0)  -->
<svg version="1.2" xmlns="http://www.w3.org/2000/svg" xmlns:xlink="http://www.w3.org/1999/xlink"
	 x="0px" y="0px" viewBox="0 0 50 50">
	<path fill="#0bb3d6" d="M38.1,17.2l-2.2,2.2c1,1.9,1.6,4,1.6,6.3c0,7.2-5.9,13.1-13.1,13.1s-13.1-5.9-13.1-13.1s5.9-13.1,13.1-13.1
		c2.3,0,4.4,0.6,6.3,1.6l2.2-2.2c-2.4-1.5-5.3-2.4-8.4-2.4c-8.8,0-16,7.2-16,16s7.2,16,16,16s16-7.2,16-16
		C40.5,22.5,39.6,19.6,38.1,17.2z M32.1,23.2l-2.6,2.6c-0.1,2.7-2.3,4.9-5,4.9c-2.8,0-5.1-2.3-5.1-5.1c0-2.7,2.2-5,4.9-5l2.6-2.6
		c-0.8-0.2-1.6-0.4-2.4-0.4c-4.4,0-8,3.6-8,8s3.6,8,8,8s8-3.6,8-8C32.4,24.7,32.3,23.9,32.1,23.2z M45.4,13l-2.2,2.2
		c1.7,3.1,2.7,6.6,2.7,10.4c0,11.8-9.6,21.5-21.5,21.5S3,37.4,3,25.6S12.6,4.1,24.4,4.1c3.8,0,7.3,1,10.4,2.7L37,4.6
		c-3.7-2.2-8-3.5-12.6-3.5C11,1.2,0,12.1,0,25.6S11,50,24.4,50s24.4-11,24.4-24.4C48.8,21,47.6,16.7,45.4,13z M42.2,13.1l-2.8-0.3
		L25.4,26.7c-0.6,0.6-1.5,0.6-2.1,0c-0.6-0.6-0.6-1.5,0-2.1l13.9-13.9l-0.3-2.8L44.8,0l1,4.2l4.2,1L42.2,13.1z"/>
</svg>
