<svg xmlns="http://www.w3.org/2000/svg" xmlns:xlink="http://www.w3.org/1999/xlink" preserveAspectRatio="xMidYMid" width="43" height="50" viewBox="0 0 43 50">
  <path fill="#0bb3d6" d="M25.138,6.139 C25.138,6.139 25.138,7.020 25.138,7.020 C35.274,8.762 42.990,17.648 42.990,28.356 C42.990,40.313 33.369,50.007 21.501,50.007 C9.632,50.007 0.010,40.313 0.010,28.355 C0.010,23.015 1.932,18.131 5.112,14.356 C7.171,11.912 9.758,9.937 12.697,8.605 C14.322,7.868 16.053,7.330 17.863,7.019 C17.863,7.019 17.863,6.138 17.863,6.138 C17.863,6.138 17.863,5.257 17.863,5.257 C17.863,5.257 17.863,2.962 17.863,2.962 C17.863,2.962 16.000,2.962 16.000,2.962 C15.383,2.962 14.883,2.297 14.883,1.477 C14.883,0.657 15.383,-0.007 16.000,-0.007 C16.000,-0.007 27.000,-0.007 27.000,-0.007 C27.618,-0.007 28.118,0.657 28.118,1.477 C28.118,2.297 27.618,2.962 27.000,2.962 C27.000,2.962 25.138,2.962 25.138,2.962 C25.138,2.962 25.138,5.257 25.138,5.257 C25.138,5.257 25.138,6.139 25.138,6.139 ZM21.502,10.377 C18.404,10.377 15.491,11.179 12.950,12.583 C11.432,13.421 10.049,14.474 8.840,15.702 C5.638,18.954 3.656,23.425 3.657,28.356 C3.657,38.269 11.662,46.334 21.502,46.334 C31.341,46.334 39.346,38.269 39.346,28.356 C39.346,18.442 31.341,10.377 21.502,10.377 ZM32.289,39.226 C31.600,39.921 30.844,40.551 30.032,41.103 C29.625,41.379 29.207,41.636 28.774,41.872 C28.233,42.169 27.673,42.433 27.095,42.662 C25.651,43.236 24.100,43.594 22.480,43.698 C22.155,43.718 21.829,43.728 21.500,43.728 C18.867,43.728 16.389,43.056 14.227,41.873 C13.795,41.637 13.375,41.380 12.969,41.104 C12.158,40.552 11.401,39.923 10.711,39.227 C7.950,36.444 6.242,32.602 6.241,28.354 C6.241,24.108 7.949,20.265 10.711,17.483 C11.400,16.788 12.157,16.159 12.969,15.606 C13.375,15.330 13.794,15.073 14.227,14.836 C16.389,13.653 18.866,12.981 21.500,12.981 C21.829,12.981 22.155,12.991 22.480,13.013 C24.100,13.116 25.652,13.474 27.095,14.048 C27.673,14.278 28.233,14.541 28.774,14.837 C29.206,15.074 29.625,15.331 30.032,15.607 C30.843,16.160 31.599,16.788 32.289,17.484 C35.051,20.266 36.759,24.110 36.759,28.355 C36.759,32.601 35.051,36.443 32.289,39.226 ZM21.501,16.122 C13.537,16.122 7.974,24.106 10.008,32.090 C10.008,32.090 21.501,27.640 21.501,27.640 C21.501,27.640 21.501,16.122 21.501,16.122 ZM3.646,10.878 C3.646,8.204 5.798,6.035 8.453,6.035 C9.653,6.035 10.747,6.480 11.589,7.212 C8.718,8.583 6.171,10.533 4.093,12.907 C3.809,12.290 3.646,11.604 3.646,10.878 Z" id="path-1" class="cls-2" fill-rule="evenodd"/>
</svg>
