<?xml version="1.0" encoding="utf-8"?>
<!-- Generator: Adobe Illustrator 18.1.1, SVG Export Plug-In . SVG Version: 6.00 Build 0)  -->
<svg version="1.2" xmlns="http://www.w3.org/2000/svg" xmlns:xlink="http://www.w3.org/1999/xlink"
	 x="0px" y="0px" viewBox="0 0 38 34">
	<path d="M10.2,34c0-1.3,0.5-2.4,1.2-3.8c2.3,0,4.7,0,7.2,0c-0.7-1.2-1.8-0.6-2.8-1c0.2-1.4,1.1-2.8,0.8-4.3
		c-0.2-0.8-1.2-0.2-1.6-0.9c0-0.8-0.1-1.6-0.1-2.6c-1.6-0.6-3.2-1.3-4.5-2.4c-0.7,0.6-0.1,1.5-0.8,1.9c-1.1-0.3-2.2-0.6-3.4-1
		c-0.4-1.5,0.6-1.8,1.9-2.1c-2.7-1.5-5.3-3.1-6.6-5.9C0.2,9.2-0.2,6.3,0.1,3.3C3,2.8,5.8,3.3,8.6,3c0.5-1.1-0.8-1.8-0.5-3
		c7.4,0,14.8,0,22.1,0c0.1,1.1-0.9,1.7-0.6,2.9c2.6,0.4,5.3,0,8.1,0.3c0.5,3.1,0.1,6-1.3,8.8c-1.4,2.7-3.8,4.4-6.9,5.7
		c-1.9,1.5,0,0-1.9,1.5c-1.1,0.6-2.1,1.2-3.2,1.8c-0.5,1-0.1,2-0.3,3c-0.4,0.6-1.2,0.2-1.6,0.5c-0.3,2.7,0,3.6,2,5.8
		c0.9,0,1.8,0.1,2.8,0.1c0.8,1,1.2,2.3,1.6,3.7C22.7,34,16.5,34,10.2,34z M8.9,15.4c0.3-2.5,0.7-4.9,1-7.1C9.2,7.5,8.2,8,7.7,7.3
		c-0.1-0.6-0.2-1.2-0.3-2C5.7,5.1,4,5.1,2.3,5.3C1.9,10.3,4,13.8,8.9,15.4z M29.2,15.5c4.8-1.9,6.8-5,6.6-10.1
		c-0.8-0.3-1.7-0.2-2.5-0.2c-0.9,0-1.9-0.2-2.8,0.3c-0.1,0.7-0.1,1.3-0.2,1.9c-0.5,0.6-1.3,0.2-1.8,1C28.4,10.7,29.1,13,29.2,15.5z
		 M12,15.1c-0.2,1.7,1,2.5,2.4,2.7c-0.9-5.4,2.1-10.4,1.5-15.6c-1-0.3-1.9-0.2-3.2-0.1C12.7,6.5,12.5,10.8,12,15.1z" fill="#ffffff"/>
</svg>
