<svg id="Ebene_1" data-name="Ebene 1" xmlns="http://www.w3.org/2000/svg" xmlns:xlink="http://www.w3.org/1999/xlink" viewBox="0 0 564.81 705.4"><defs><style>.cls-1{fill:none;stroke:#ccc;stroke-width:14px;}.cls-1,.cls-2{stroke-miterlimit:10;}.cls-2,.cls-9{fill:#e5dac7;}.cls-2{stroke:#f7931e;stroke-width:10px;}.cls-3{fill:#42469b;}.cls-4{fill:url(#Unbenannter_Verlauf_19);}.cls-5{fill:#f15a24;}.cls-6{fill:#f7931e;}.cls-7{fill:#2e1013;}.cls-8{fill:#f8993f;}.cls-10{fill:url(#Unbenannter_Verlauf_19-2);}.cls-11{fill:url(#Unbenannter_Verlauf_85);}.cls-12{fill:#fbb03b;}</style><radialGradient id="Unbenannter_Verlauf_19" cx="964.98" cy="404.03" fy="581.0202244756001" r="177.05" gradientUnits="userSpaceOnUse"><stop offset="0.28" stop-color="#f15a24"/><stop offset="0.53" stop-color="#f56c22"/><stop offset="0.53" stop-color="#f67022"/><stop offset="0.53" stop-color="#fb8320"/><stop offset="0.53" stop-color="#fe8f1e"/><stop offset="0.54" stop-color="#ff931e"/><stop offset="0.54" stop-color="#ff931e"/><stop offset="0.74" stop-color="#ff931e"/><stop offset="0.75" stop-color="#fbb03b"/><stop offset="0.94" stop-color="#fbb03b"/></radialGradient><radialGradient id="Unbenannter_Verlauf_19-2" cx="963.55" cy="533.18" fy="533.1844822821249" r="355.64" gradientTransform="translate(448.26 1496.74) rotate(-90) scale(1 0.97)" xlink:href="#Unbenannter_Verlauf_19"/><radialGradient id="Unbenannter_Verlauf_85" cx="277.7" cy="1440.71" r="1954.45" gradientUnits="userSpaceOnUse"><stop offset="0.5" stop-color="#ccc"/><stop offset="0.5" stop-color="#cecece"/><stop offset="0.5" stop-color="#d5d5d5"/><stop offset="0.5" stop-color="#e0e0e0"/><stop offset="0.5" stop-color="#e6e6e6"/></radialGradient></defs><path class="cls-1" d="M1453,665" transform="translate(-682.1 -205.95)"/><path class="cls-2" d="M1240,750l-30-74,12-72-54.62,4c7.11-23.34,11.16-40.28,12.63-46.72,3-7.2,6.1-14.4,8.76-20.61a48.53,48.53,0,0,0-1.4-41.6c-3.6-7.13-7.23-14.38-10.74-21.39l-.07-.15c-9.62-19.23-19.56-39.09-30-58.58,16.83-44.12,22.44-82,17.66-119.17-3.5-27.21-14.07-50.23-31.4-68.42C1120.12,218,1104.41,211,1087.39,211c-15.52,0-30.33,6-42.83,17.34-13.28,12.05-24.7,26.76-35.94,46.31a398,398,0,0,0-22.69,46.54,162.55,162.55,0,0,0-40.4,0,397.62,397.62,0,0,0-22.68-46.52c-11.88-20.69-24-36-38.06-48.19a61,61,0,0,0-84,2.66,106.69,106.69,0,0,0-15.42,19.14c-14.76,23.55-21,50-19.6,83.33,1.16,27.87,7.37,56.56,19,87.53-6.48,12.7-12.92,25.37-19.17,37.67l-.2.39c-6.8,13.4-13.84,27.26-20.79,40.87a50.39,50.39,0,0,0-1.44,43.86c2.75,6.26,5.2,12,7.48,17.5,1.1,6.75,4.17,24,10.34,47.55L705,603l14,72-30,74,145.56,29.29q6.93,10.71,14.26,20.79c30,41.28,65.17,74.33,104.37,98.25l7.23,4.41,6.19,3.77,6.22-3.72,7.26-4.35c34.37-20.57,66.36-51.58,95.1-92.16q8.82-12.45,17.24-26.13Z" transform="translate(-682.1 -205.95)"/><path class="cls-3" d="M1085.65,232.82c9.73,0,18.93,4.26,26.6,12.31,13.43,14.1,21.66,32.2,24.44,53.8,4.27,33.19-1.08,67.6-16.84,108.31-2.73,7.07-2.5,11.4,1,17.82,10.68,19.8,20.89,40.21,30.76,59.94,3.55,7.1,7.22,14.44,10.86,21.63a22.64,22.64,0,0,1,.7,19.65c-3,6.92-6.41,15-9.73,22.91,0,0-51.4,239.81-188.4,321.81C806,774,774.12,548.21,774.12,548.21c-2.67-6.54-5.58-13.39-8.89-20.92A24.17,24.17,0,0,1,766,505.7c7-13.75,14.14-27.75,21-41.29,7.86-15.49,16-31.5,24-47.24a4.44,4.44,0,0,0,.36-.82,3.54,3.54,0,0,0-.18-.54c-13.11-32.25-20-61.51-21.21-89.46s3.82-49.56,15.66-68.44a79.48,79.48,0,0,1,11.63-14.43A35,35,0,0,1,866,242c11.81,10.21,22.15,23.39,32.53,41.47s19.69,38.36,28.92,63.2a138.7,138.7,0,0,1,73,0c9.25-24.88,18.48-45,28.93-63.2,9.84-17.13,19.65-29.85,30.86-40,7.64-6.93,16.41-10.59,25.36-10.59m0-14c-12.49,0-24.51,4.92-34.77,14.22-12.32,11.18-23,25-33.59,43.41a403.83,403.83,0,0,0-25.53,53.86,151.26,151.26,0,0,0-55.53,0,403.53,403.53,0,0,0-25.52-53.85c-11.19-19.49-22.47-33.81-35.51-45.09a49,49,0,0,0-67.68,2.14,94,94,0,0,0-13.67,17c-13.42,21.4-19.07,45.69-17.79,76.46,1.17,28,7.74,57.08,20.07,88.73-7.24,14.19-14.52,28.51-21.57,42.41l-.2.39c-6.82,13.4-13.86,27.27-20.81,40.88a38,38,0,0,0-1.13,33.58c3,6.82,5.65,13.07,8.11,19,1.63,10.43,10.69,63.14,36.44,126.54,16.59,40.87,36.71,77.67,59.81,109.38,29.12,40,63.08,72,100.93,95.07l7.22,4.41,7.26-4.35c32.93-19.71,63.7-49.58,91.47-88.8,21.88-30.9,42-67.69,59.79-109.37,28.08-65.77,41.24-122,43.35-131.4,3.15-7.51,6.39-15.09,9.2-21.66a36.72,36.72,0,0,0-1.07-31.46c-3.64-7.2-7.3-14.51-10.84-21.59-9.92-19.82-20.18-40.32-30.95-60.31-1.46-2.7-1.51-2.81-.23-6.12,16.63-43,22.25-79.56,17.66-115.15-3.17-24.62-12.65-45.37-28.18-61.68-10.38-10.89-23.08-16.65-36.74-16.65Z" transform="translate(-682.1 -205.95)"/><path class="cls-4" d="M922.54,419c1.37-.38,1.74.75,2.13,1.56,4.58,9.53,5.22,19.47,3,29.69,0,.16-.1.32-.15.47-2.46,7.38-21.21,17.06-28.77,14.86-11.34-3.31-22.72-6.48-34-10a17,17,0,0,0-11.65.38c-7.31,2.77-14.61,5.56-22,8.12a13.84,13.84,0,0,0-7.66,6q-7.83,12.78-15.71,25.52a12.51,12.51,0,0,0-2,8.57c1.17,8.4,2.33,16.8,3.53,25.2.52,3.61,2.48,6.42,4.95,9,6.76,7.13,13.44,14.33,20.12,21.53,1.08,1.17,2.59,2.16,2.32,4.86-6.21-1.43-12.3-2.82-18.38-4.24-8.42-2-16.82-4-25.27-5.86-4.9-1-7.86-3.89-9.7-8.38q-4.33-10.63-9-21.14a15.28,15.28,0,0,1,.57-13.88c15-29.49,30-59,45.06-88.52a9.56,9.56,0,0,0,.5-8.85c-11.28-27.74-19.3-56.33-20.56-86.45-.93-22.34,2.12-43.86,14.29-63.28a70.61,70.61,0,0,1,10.32-12.8c10.46-10.3,25.36-10.76,36.5-1.13,12.77,11,22.29,24.65,30.62,39.15,11.88,20.7,21.23,42.56,29.41,64.93,1.27,3.46,2.45,4.55,6.41,3.39a130.14,130.14,0,0,1,74.8,0c4,1.17,5.16,0,6.41-3.39,8.19-22.37,17.53-44.24,29.43-64.93,8-13.91,17.12-27,29.11-37.84,12.55-11.38,27.69-11,39.39,1.26,13,13.67,19.66,30.33,22,48.75,4.66,36.18-3.4,70.58-16.3,103.91-3.65,9.44-3.36,16.45,1.43,25.34,14.44,26.79,27.77,54.18,41.51,81.36a13.71,13.71,0,0,1,.45,12.05c-3.27,7.65-6.54,15.3-9.75,23-1.51,3.61-4,6.18-7.81,7.09q-21.12,5-42.27,9.93A3.24,3.24,0,0,1,1093,564c-.18-1.91,1.33-2.9,2.41-4.07,5.75-6.25,11.32-12.68,17.4-18.59,5.17-5,8.48-10.55,8.37-17.92a16.92,16.92,0,0,1,.92-5.4c4.56-13.56-1.25-24.2-7.79-35.82-7.13-12.66-16.8-19.3-30.08-23.68-9.51-3.15-17.91-4.24-27.37-.52-8.16,3.2-16.91,4.92-25.34,7.47-4.76,1.44-9.14,1.38-13.26-1.76-1.58-1.21-3.43-2.06-5-3.21-4.37-3.12-10-4.91-11.28-11.24-2.08-10.46-1.13-20.48,4-29.93.15-.27.85-.23,1.29-.33.42,1.26-.41,2.22-.78,3.29-3.45,10-.54,22.38,6.82,28.95,5.66,5.05,12.29,3.59,15.34-3.38,5.16-11.78-.64-27.47-12.2-33,1.84-.47,3.61,0,5.41.34,9.24,1.67,16.1-6.33,12.77-15.12-2.76-7.28-6.68-13.53-15.73-13.84a9.9,9.9,0,0,1-2.88-.76c-9.79-3.57-18.7-2.13-27.34,3.78-5.05,3.45-10.85,5.77-16.22,8.76a14.6,14.6,0,0,1-15.15,0c-8-4.39-16.14-8.59-24.21-12.87-1.92-1-3.86-2.1-6.11-1.9a86.58,86.58,0,0,0-23.27,5.07c-5.7,2.16-10.39,13.17-9,19.14,1.15,5,6.81,8.77,12.24,8,2.13-.32,4.19-1.1,6.38-.56-11.54,5.53-17.37,21.26-12.22,33,3.06,7,9.71,8.4,15.37,3.37a23.21,23.21,0,0,0,6.15-8.95C925.76,434.47,925,426.72,922.54,419Zm179.94-5.63c3.21-5.07,4.71-10.55,6.52-15.87,10.28-30.23,6.29-59.12,3-91.47-1.92-18.83-.28-31.31-14-45-7.59-7.57-13.91-5.85-22,0-14.42,10.43-18.61,17.41-25,34-5,13-13.08,23.47-11.37,37.41,1.44,11.79,1.95,23.57-3.06,34.82-1.29,2.9,1.32,3,2.71,3.64a235.06,235.06,0,0,1,27.18,14.71C1079.23,393.74,1091,403.23,1102.48,413.34Zm-275.13-.07c4.71-4,9.19-7.93,13.84-11.68a226,226,0,0,1,49.44-30.72c1.71-.76,3.84-1.11,2.48-4.17a49.49,49.49,0,0,1-3.35-27.87c5-32.75-7.87-44.51-32.76-66.83-13.29-11.91-5.78-8.81-17,5-13.36,16.44-21.64,19.52-22,40-.49,28.44-6.51,53.88,2.87,80.53C822.73,402.82,824.15,408.33,827.35,413.27Z" transform="translate(-682.1 -205.95)"/><path class="cls-5" d="M964.92,580.68c-7.32,0-14.45-3.87-20.08-10.89-7.91-9.87-13-22-15.66-37.71.46,0,.91,0,1.37,0,9.11,0,18.31-2.26,28.13-6.92a13.78,13.78,0,0,1,6-1.41,17.7,17.7,0,0,1,7.44,1.82c9.58,4.38,18.47,6.51,27.19,6.51h1.33c-2.7,15.74-7.74,27.84-15.65,37.71-5.63,7-12.76,10.88-20.08,10.88Z" transform="translate(-682.1 -205.95)"/><path class="cls-6" d="M964.7,528.77a13,13,0,0,1,5.36,1.37,72.92,72.92,0,0,0,24.57,6.78c-2.69,12.2-7,21.64-13.52,29.75-4.66,5.81-10.41,9-16.18,9s-11.53-3.2-16.19-9c-6.5-8.1-10.83-17.54-13.53-29.74a72.27,72.27,0,0,0,25.61-7.22,8.87,8.87,0,0,1,3.88-.93m0-10a18.83,18.83,0,0,0-8.17,1.9c-8.32,3.94-16.93,6.43-26,6.43a49.73,49.73,0,0,1-7.25-.53c2.15,16.87,6.74,32.76,17.64,46.35,6.82,8.51,15.4,12.76,24,12.76s17.16-4.25,24-12.75c10.9-13.6,15.48-29.49,17.62-46.37a47.74,47.74,0,0,1-7.2.54c-8.71,0-17-2.35-25.11-6.06a22.79,22.79,0,0,0-9.52-2.27Z" transform="translate(-682.1 -205.95)"/><path class="cls-7" d="M1006.53,526.56c-11.38,1.73-22-.8-32.31-5.52-5.79-2.65-11.64-3.24-17.69-.37-10.51,5-21.49,7.64-33.23,5.9-22.53-4.32-33.86-20-40.5-40.25-1.16-3.55-.25-6.72,3.83-7.91,3.88-1.13,6.53.6,7.86,4.2a96.39,96.39,0,0,0,6.46,14,35.14,35.14,0,0,0,42.91,16c23-8.65,19.07-8.66,42.13,0A35.14,35.14,0,0,0,1028.66,497a91.49,91.49,0,0,0,6.71-14.44c1.32-3.6,4-5.33,7.86-4.19,4.07,1.2,5,4.37,3.81,7.92C1040.4,506.6,1029.08,522.26,1006.53,526.56Z" transform="translate(-682.1 -205.95)"/><path class="cls-7" d="M965.33,461.74c8.4,0,16.65,1.07,24.29,4.72,9.8,4.67,10.76,11.67,2.85,19.07-14.37,13.45-40.42,13.51-55,.13-8.15-7.51-7.13-14.65,3-19.34C948.34,462.69,956.75,461.65,965.33,461.74Z" transform="translate(-682.1 -205.95)"/><path class="cls-7" d="M922.54,419c2.48,7.75,3.22,15.5.11,23.29a23.21,23.21,0,0,1-6.15,8.95c-5.66,5-12.31,3.58-15.37-3.37-5.15-11.74.68-27.47,12.22-33l2.23,0A4.17,4.17,0,0,0,919,416l.68.41a1.26,1.26,0,0,0,1.39,1.11l0-.05c.09,1,.45,1.7,1.64,1.46Z" transform="translate(-682.1 -205.95)"/><path class="cls-7" d="M1016.49,414.84c11.56,5.52,17.36,21.21,12.2,33-3,7-9.68,8.43-15.34,3.38-7.36-6.57-10.27-18.94-6.82-28.95.37-1.07,1.2-2,.78-3.29l-.08-.08c1.19.24,1.55-.47,1.64-1.46l0,.05a1.25,1.25,0,0,0,1.39-1.11l.68-.41a4.15,4.15,0,0,0,3.37-1.14Z" transform="translate(-682.1 -205.95)"/><path class="cls-8" d="M919,416a4.17,4.17,0,0,1-3.37-1.14C917,414.48,918.19,414.5,919,416Z" transform="translate(-682.1 -205.95)"/><path class="cls-8" d="M1014.27,414.82a4.15,4.15,0,0,1-3.37,1.14C1011.66,414.5,1012.9,414.48,1014.27,414.82Z" transform="translate(-682.1 -205.95)"/><path class="cls-8" d="M922.62,418.89c-1.19.24-1.55-.46-1.64-1.46C922.13,417.24,922.77,417.62,922.62,418.89Z" transform="translate(-682.1 -205.95)"/><path class="cls-8" d="M1008.87,417.43c-.09,1-.45,1.7-1.64,1.46C1007.08,417.62,1007.72,417.24,1008.87,417.43Z" transform="translate(-682.1 -205.95)"/><path class="cls-8" d="M921,417.48a1.26,1.26,0,0,1-1.39-1.11C920.46,416.27,921,416.54,921,417.48Z" transform="translate(-682.1 -205.95)"/><path class="cls-8" d="M1010.22,416.37a1.25,1.25,0,0,1-1.39,1.11C1008.84,416.54,1009.39,416.27,1010.22,416.37Z" transform="translate(-682.1 -205.95)"/><path class="cls-9" d="M1101.48,417.34c-11.49-10.11-23.25-19.6-36-27.76a235.06,235.06,0,0,0-27.18-14.71c-1.39-.66-4-.74-2.71-3.64,5-11.25,4.5-23,3.06-34.82-1.71-13.94-1-27.85,4-40.83C1049,279,1060.17,265.4,1074.6,255c8.09-5.85,18.84-4,26.42,3.54,13.73,13.69,19.84,30.87,21.75,49.7,3.29,32.35-4.49,63-14.77,93.26C1106.19,406.79,1104.69,412.27,1101.48,417.34Z" transform="translate(-682.1 -205.95)"/><path class="cls-9" d="M829.35,420.27c-3.2-4.94-4.62-10.45-6.48-15.74-9.38-26.65-16.08-53.9-15.58-82.34.35-20.48,5.05-39.83,18.4-56.27,11.23-13.82,24-14.75,37.25-2.84,24.89,22.32,33.81,50,28.82,82.75a49.49,49.49,0,0,0,3.35,27.87c1.36,3.06-.77,3.41-2.48,4.17a226,226,0,0,0-49.44,30.72C838.54,412.34,834.06,416.29,829.35,420.27Z" transform="translate(-682.1 -205.95)"/><path class="cls-10" d="M964.64,851.5a9.48,9.48,0,0,1-5.07-1.47c-31.36-19.79-59.49-47.22-83.63-81.52-19.17-27.23-35.87-58.84-49.65-94-23.41-59.63-30.21-108.19-30.48-110.23l18.82,3.43c.09.68,6.9,42.82,29.51,100.29,20.17,51.25,57.31,120.42,120.52,162.65,54.13-36.24,91-105.29,112.66-157.64,24.46-59.19,35.27-104.58,35.38-105.1l18.6-2.14c-.44,2.15-11.2,53.38-36.29,114.18-14.79,35.84-31.5,67.47-49.67,94-23,33.61-48.46,59.2-75.7,76.07A9.45,9.45,0,0,1,964.64,851.5Z" transform="translate(-682.1 -205.95)"/><path class="cls-3" d="M967,613l-241,7,11,58-24,63s129.94,16.86,130.68,17.39C917,811,963,808,963,808h4s63,0,112.75-49.4c.34-.34,132.25-17.6,132.25-17.6l-24-63,11-58-229-7Z" transform="translate(-682.1 -205.95)"/><polygon class="cls-11" points="117.14 424.02 113.08 428.28 111.58 424.02 94.79 424.02 81.86 437.2 49.93 528.76 63.25 528.76 90.92 444.62 93.76 441.67 101.48 441.67 102.44 444.62 76.43 528.76 89.75 528.76 114.08 444.62 116.8 441.67 124.53 441.67 125.47 444.62 102.79 528.76 116.11 528.76 138.97 437.2 133.93 424.02 117.14 424.02"/><polygon class="cls-11" points="157.67 423.83 146.12 437.01 128.53 511.13 134.34 528.76 160.59 528.76 173.44 511.13 176.14 495.1 163.49 495.1 162.2 501.94 159.45 505.53 144.79 505.53 143.5 501.94 148.35 479.62 163.48 479.62 167.34 459.62 152.7 459.62 156 444.45 158.51 441.47 171.71 441.47 173.03 444.42 171.94 450.21 183.69 450.21 185.93 436.91 179.8 423.83 157.67 423.83"/><polygon class="cls-11" points="203.28 423.83 192.89 437.01 181.32 511.13 188.45 528.76 214.66 528.76 226.08 511.13 230.58 459.62 206.96 459.62 204.42 479.62 216.5 479.62 214.1 501.94 211.66 505.53 197.11 505.53 195.54 501.93 203.38 444.43 205.63 441.47 218.74 441.47 220.27 444.42 219.65 450.21 231.41 450.21 232.57 436.91 225.38 423.83 203.28 423.83"/><path class="cls-11" d="M931.2,630l-9.45,13.18-6.87,91.57h13.47l2-38.76h18.35l-1,38.76H961l.54-91.57L953.3,630Zm18,45.33H931.48l1.36-24.75,2.14-2.93h13.11l1.78,2.93Z" transform="translate(-682.1 -205.95)"/><polygon class="cls-11" points="315.31 423.83 307.45 437.01 310.61 511.13 321.35 528.76 347.6 528.76 355.51 511.13 353.72 495.1 341.07 495.1 341.7 501.94 339.96 505.53 325.3 505.53 323 501.93 319.41 444.43 321.09 441.47 334.29 441.47 336.43 444.42 336.96 450.21 348.71 450.21 347.23 436.91 337.44 423.83 315.31 423.83"/><polygon class="cls-11" points="378.06 501.94 366.5 424.02 355.27 424.02 366.46 511.13 378.61 528.76 404.25 528.76 400.03 505.53 380.67 505.53 378.06 501.94"/><path class="cls-11" d="M1083.57,630l-5.88,13.18,17.89,91.57h13.47L1100.56,696h18.35l9.48,38.76h13.32l-24.22-91.57L1105.67,630Zm30.29,45.33h-17.75l-5.33-24.75,1.35-2.93h13.1l2.57,2.93Z" transform="translate(-682.1 -205.95)"/><polygon class="cls-11" points="471.01 424.02 448.84 424.02 444.17 437.2 469.78 528.76 483.1 528.76 457.88 444.62 458.87 441.67 472.07 441.67 474.91 444.62 502.58 528.76 515.9 528.76 483.97 437.2 471.01 424.02"/><path class="cls-12" d="M1032.07,755h36.68c-9.88,10.76-28.78,21.13-35.86,24.8Z" transform="translate(-682.1 -205.95)"/><path class="cls-6" d="M1063.91,757c-8.82,8.09-21.81,15.6-29.12,19.54l-.65-19.54h29.77m9.09-4h-43l1,30s31-15,42-30Z" transform="translate(-682.1 -205.95)"/><path class="cls-12" d="M895.11,777.8c-7.08-3.67-26-14-35.86-24.8h36.68Z" transform="translate(-682.1 -205.95)"/><path class="cls-6" d="M893.86,755l-.65,19.54c-7.31-3.94-20.3-11.45-29.12-19.54h29.77m4.14-4H855c11,15,42,30,42,30l1-30Z" transform="translate(-682.1 -205.95)"/><path class="cls-6" d="M917.07,797.57A18.5,18.5,0,0,1,898,777.89l.19-5.81h9.76v-6.2l-9.53,0,.39-6.4c.66-11,8.51-18.72,19.08-18.72a18.35,18.35,0,0,1,18.41,18.68,17,17,0,0,1-2.41,8.77,18.48,18.48,0,0,1,3,10.4C936.86,789.44,928.35,797.57,917.07,797.57Z" transform="translate(-682.1 -205.95)"/><path class="cls-3" d="M917.87,746.81a12.35,12.35,0,0,1,12.41,12.68,10.14,10.14,0,0,1-4.85,9c3.67,2.07,5.43,5.8,5.43,10.22,0,8.32-6.65,12.91-13.79,12.91-7.45,0-13.36-5.16-13.09-13.49h10.59l0,.75c.16,2.35,1.33,3.33,2.61,3.33,2.13,0,3-1.84,3-3.9,0-3.56-2.39-4.77-4.79-4.77h-1.49v-9.12h1.33c2.88,0,4.42-1,4.42-4.42,0-1.43-.48-3.73-2.24-3.73-2.23,0-2.18,2.93-2.18,3.33v.29l-10.49,0c.48-7.92,5.7-13.08,13.1-13.08m0-12a24.69,24.69,0,0,0-17.61,7.07,26.11,26.11,0,0,0-7.46,17.29l-.42,6.91h0l0,.83L892,772h.15L892,777.7a24.48,24.48,0,0,0,25.09,25.87c14.7,0,25.79-10.71,25.79-24.91a25.28,25.28,0,0,0-2.22-10.59,23.26,23.26,0,0,0,1.64-8.58,24.28,24.28,0,0,0-24.41-24.68Z" transform="translate(-682.1 -205.95)"/><path class="cls-12" d="M949.6,790.57c-12.57,0-13.21-17.81-13.21-21.38s.64-21.38,13.21-21.38,13.22,17.81,13.22,21.38S962.18,790.57,949.6,790.57Zm0-34.78c-4,0-4.51,6.44-4.51,13.4s.55,13.4,4.51,13.4,4.52-6.44,4.52-13.4S953.57,755.79,949.6,755.79Z" transform="translate(-682.1 -205.95)"/><path class="cls-6" d="M949.6,748.81c11.63,0,12.22,17,12.22,20.38s-.59,20.38-12.22,20.38-12.21-17-12.21-20.38.59-20.38,12.21-20.38m0,34.78c5.52,0,5.52-9.37,5.52-14.4s0-14.4-5.52-14.4-5.51,9.37-5.51,14.4,0,14.4,5.51,14.4m0-36.78c-11.18,0-14.21,12.8-14.21,22.38s3,22.38,14.21,22.38,14.22-12.8,14.22-22.38-3-22.38-14.22-22.38Zm0,34.78c-3.3,0-3.51-7.52-3.51-12.4s.21-12.4,3.51-12.4,3.52,7.52,3.52,12.4-.22,12.4-3.52,12.4Z" transform="translate(-682.1 -205.95)"/><path class="cls-6" d="M1013.92,797.57c-12.47,0-20.21-10.87-20.21-28.38s7.74-28.38,20.21-28.38,20.21,10.87,20.21,28.38S1026.39,797.57,1013.92,797.57Z" transform="translate(-682.1 -205.95)"/><path class="cls-3" d="M1013.92,746.81c11.18,0,14.21,12.8,14.21,22.38s-3,22.38-14.21,22.38-14.21-12.8-14.21-22.38,3-22.38,14.21-22.38m0,34.78c3.3,0,3.51-7.52,3.51-12.4s-.21-12.4-3.51-12.4-3.51,7.52-3.51,12.4.21,12.4,3.51,12.4m0-46.78c-9.57,0-17.61,5.22-22.07,14.31-3.43,7-4.14,14.77-4.14,20.07s.71,13.09,4.14,20.07c4.46,9.09,12.5,14.31,22.07,14.31s17.61-5.22,22.07-14.31c3.43-7,4.14-14.77,4.14-20.07s-.71-13.09-4.14-20.07c-4.46-9.09-12.5-14.31-22.07-14.31Z" transform="translate(-682.1 -205.95)"/><path class="cls-12" d="M981.76,790.57c-12.58,0-13.21-17.81-13.21-21.38s.63-21.38,13.21-21.38S995,765.62,995,769.19,994.34,790.57,981.76,790.57Zm0-34.78c-4,0-4.51,6.44-4.51,13.4s.54,13.4,4.51,13.4,4.52-6.44,4.52-13.4S985.73,755.79,981.76,755.79Z" transform="translate(-682.1 -205.95)"/><path class="cls-6" d="M981.76,748.81c11.63,0,12.22,17,12.22,20.38s-.59,20.38-12.22,20.38-12.21-17-12.21-20.38.59-20.38,12.21-20.38m0,34.78c5.52,0,5.52-9.37,5.52-14.4s0-14.4-5.52-14.4-5.51,9.37-5.51,14.4,0,14.4,5.51,14.4m0-36.78c-11.18,0-14.21,12.8-14.21,22.38s3,22.38,14.21,22.38S996,778.77,996,769.19s-3-22.38-14.22-22.38Zm0,34.78c-3.3,0-3.51-7.52-3.51-12.4s.21-12.4,3.51-12.4,3.52,7.52,3.52,12.4-.22,12.4-3.52,12.4Z" transform="translate(-682.1 -205.95)"/><path class="cls-12" d="M917.07,790.57a12.23,12.23,0,0,1-8.93-3.53,11.65,11.65,0,0,1-3.17-8h8.67c.27,3,2,4.08,3.59,4.08,2.42,0,4-1.92,4-4.9,0-4.25-3-5.77-5.79-5.77h-.49v-7.12h.33c3.7,0,5.42-1.72,5.42-5.42,0-2.35-1-4.73-3.24-4.73a2.8,2.8,0,0,0-2.05.82,4.38,4.38,0,0,0-1.1,2.8l-8.42,0c.82-6.77,5.44-11.08,12-11.08a11.3,11.3,0,0,1,11.41,11.68,9.11,9.11,0,0,1-4.35,8.09l-1.52.87,1.53.86c4.07,2.29,4.92,6.35,4.92,9.35C929.86,786.84,923.23,790.57,917.07,790.57Z" transform="translate(-682.1 -205.95)"/><path class="cls-6" d="M917.87,748.81a10.32,10.32,0,0,1,10.41,10.68,8.11,8.11,0,0,1-3.85,7.22l-3,1.75,3.06,1.73c3.65,2,4.41,5.74,4.41,8.47,0,7.5-6.11,10.91-11.79,10.91a11.24,11.24,0,0,1-8.21-3.22,10.49,10.49,0,0,1-2.82-6.27h6.74c.6,3,2.7,4.08,4.45,4.08,3,0,5-2.37,5-5.9,0-3.94-2.44-6.54-6.28-6.75v-5.16c3.82-.22,5.75-2.37,5.75-6.4,0-3.43-1.7-5.73-4.24-5.73a3.84,3.84,0,0,0-2.76,1.11,4.9,4.9,0,0,0-1.26,2.52l-6.38,0c1.11-5.58,5.19-9.07,10.83-9.07m0-2c-7.4,0-12.62,5.16-13.1,13.08l10.49,0v-.29c0-.4,0-3.33,2.18-3.33,1.76,0,2.24,2.3,2.24,3.73,0,3.39-1.54,4.42-4.42,4.42h-1.33v9.12h1.49c2.4,0,4.79,1.21,4.79,4.77,0,2.06-.85,3.9-3,3.9-1.28,0-2.45-1-2.61-3.33l0-.75H904c-.27,8.33,5.64,13.49,13.09,13.49,7.14,0,13.79-4.59,13.79-12.91,0-4.42-1.76-8.15-5.43-10.22a10.14,10.14,0,0,0,4.85-9,12.35,12.35,0,0,0-12.41-12.68Z" transform="translate(-682.1 -205.95)"/><path class="cls-12" d="M1013.92,790.57c-12.58,0-13.21-17.81-13.21-21.38s.63-21.38,13.21-21.38,13.21,17.81,13.21,21.38S1026.5,790.57,1013.92,790.57Zm0-34.78c-4,0-4.51,6.44-4.51,13.4s.54,13.4,4.51,13.4,4.51-6.44,4.51-13.4S1017.89,755.79,1013.92,755.79Z" transform="translate(-682.1 -205.95)"/><path class="cls-6" d="M1013.92,748.81c11.62,0,12.21,17,12.21,20.38s-.59,20.38-12.21,20.38-12.21-17-12.21-20.38.58-20.38,12.21-20.38m0,34.78c5.51,0,5.51-9.37,5.51-14.4s0-14.4-5.51-14.4-5.51,9.37-5.51,14.4,0,14.4,5.51,14.4m0-36.78c-11.18,0-14.21,12.8-14.21,22.38s3,22.38,14.21,22.38,14.21-12.8,14.21-22.38-3-22.38-14.21-22.38Zm0,34.78c-3.3,0-3.51-7.52-3.51-12.4s.21-12.4,3.51-12.4,3.51,7.52,3.51,12.4-.21,12.4-3.51,12.4Z" transform="translate(-682.1 -205.95)"/></svg>